<mxfile host="app.diagrams.net" modified="2023-05-15T00:20:13.750Z" agent="Mozilla/5.0 (X11; Linux x86_64; rv:109.0) Gecko/20100101 Firefox/113.0" version="21.3.0" etag="eSg0mGg4fP0uZPrqfs21" type="github">
  <diagram name="Page-1" id="hfDjy3odG5tC5Tba8WEt">
    <mxGraphModel>
      <root>
        <mxCell id="0" />
        <mxCell id="1" parent="0" />
      </root>
    </mxGraphModel>
  </diagram>
</mxfile>
